<?xml version="1.0" standalone="no"?>
<!DOCTYPE svg PUBLIC "-//W3C//DTD SVG 20010904//EN"
 "http://www.w3.org/TR/2001/REC-SVG-20010904/DTD/svg10.dtd">
<svg version="1.0" xmlns="http://www.w3.org/2000/svg"
 width="512.000000pt" height="512.000000pt" viewBox="0 0 512.000000 512.000000"
 preserveAspectRatio="xMidYMid meet">

<g transform="translate(0.000000,512.000000) scale(0.100000,-0.100000)"
fill="#000000" stroke="none">
<path d="M1680 4989 c-595 -20 -1161 -60 -1250 -88 -153 -48 -266 -161 -318
-316 -26 -79 -65 -474 -94 -970 -16 -279 -16 -1255 0 -1535 24 -402 63 -852
83 -938 36 -161 180 -308 349 -356 53 -15 293 -35 670 -56 815 -45 1855 -51
2610 -15 l105 6 90 -112 c96 -120 262 -310 368 -423 l65 -69 86 5 c122 6 222
57 345 174 133 126 203 244 217 367 9 79 -7 116 -77 177 l-60 52 40 43 c46 50
83 118 105 195 23 83 59 473 88 955 16 275 16 1256 0 1525 -31 517 -68 896
-94 975 -59 178 -209 306 -393 334 -123 19 -723 54 -1210 71 -317 11 -1400 11
-1725 -1z m1665 -149 c476 -16 1106 -52 1238 -71 109 -15 200 -75 252 -163 40
-70 42 -86 90 -615 l6 -63 -63 6 c-209 21 -807 57 -1283 78 -658 28 -2353 9
-2442 -27 -37 -15 -51 -53 -37 -94 16 -44 44 -49 209 -41 83 5 395 14 695 21
862 20 1773 -6 2710 -77 118 -9 216 -17 217 -19 2 -1 8 -82 15 -181 16 -242
16 -1241 0 -1504 -30 -497 -65 -873 -87 -940 -15 -44 -80 -141 -100 -146 -5
-2 -68 46 -140 106 -71 61 -140 113 -153 116 -13 4 -33 -1 -48 -11 -16 -10
-30 -13 -37 -7 -95 71 -106 83 -95 108 19 40 -4 68 -129 160 -65 48 -122 90
-126 94 -5 4 19 63 52 131 126 258 174 506 151 773 -90 1048 -1199 1674 -2134
1205 -424 -213 -717 -610 -797 -1081 -18 -104 -20 -148 -16 -288 6 -170 19
-252 64 -395 139 -444 483 -799 924 -953 174 -61 274 -77 484 -77 273 0 443
40 671 155 l112 57 81 -111 c44 -61 77 -113 73 -117 -11 -11 -757 -29 -1162
-29 -537 0 -1081 18 -1665 56 -413 26 -445 34 -541 129 -74 74 -89 121 -113
371 -45 459 -71 988 -71 1449 0 272 13 718 25 861 l6 70 157 13 c86 6 249 18
362 26 200 14 206 15 228 40 12 14 22 37 22 51 0 29 -41 74 -67 74 -28 0 -560
-39 -631 -46 l-63 -6 6 63 c48 532 50 545 90 615 53 90 144 148 257 164 134
18 775 56 1188 69 351 12 1274 12 1615 1z m-354 -1176 c483 -82 890 -436 1037
-900 44 -138 62 -255 62 -403 0 -212 -46 -414 -136 -593 -327 -656 -1125 -924
-1776 -597 -619 311 -895 1032 -643 1676 165 418 554 736 1001 817 110 20 338
20 455 0z"/>
<path d="M635 4701 c-94 -25 -191 -114 -221 -203 -25 -75 -16 -179 21 -247 54
-98 138 -151 251 -159 97 -6 158 15 228 79 73 66 101 130 100 229 0 124 -61
223 -170 276 -58 28 -154 40 -209 25z"/>
<path d="M1313 4692 c-229 -82 -284 -362 -103 -525 196 -176 510 -34 510 232
0 82 -24 143 -81 205 -84 92 -215 128 -326 88z m167 -154 c104 -53 119 -186
31 -261 -86 -72 -218 -30 -251 81 -30 97 48 196 155 201 12 1 41 -9 65 -21z"/>
<path d="M2030 4697 c-55 -15 -131 -66 -160 -107 -115 -162 -70 -371 101 -465
49 -27 63 -30 144 -30 78 0 97 4 141 27 228 120 221 445 -12 559 -52 25 -155
33 -214 16z m165 -166 c103 -59 99 -218 -8 -270 -54 -26 -90 -27 -141 -1 -55
27 -79 63 -84 125 -7 80 28 133 105 161 43 15 83 10 128 -15z"/>
<path d="M2613 3529 c-358 -46 -687 -268 -873 -589 -163 -281 -198 -657 -89
-966 125 -358 410 -633 774 -747 122 -38 227 -50 393 -44 189 6 300 34 467
116 146 73 224 131 341 254 343 362 419 890 194 1337 -224 443 -715 703 -1207
639z m252 -149 c242 -26 443 -119 617 -288 450 -436 406 -1176 -94 -1552 -199
-150 -426 -220 -672 -207 -260 14 -478 110 -664 291 -191 185 -295 416 -309
682 -30 578 414 1056 1007 1083 14 0 66 -4 115 -9z"/>
<path d="M2085 2795 l-25 -24 0 -281 c0 -175 -4 -289 -10 -301 -14 -24 -47
-24 -85 1 -85 56 -176 -26 -115 -103 44 -55 161 -86 231 -59 42 16 91 64 110
107 17 36 19 71 19 341 l0 301 -23 21 c-31 29 -72 28 -102 -3z"/>
<path d="M2585 2807 c-155 -52 -259 -170 -286 -325 -30 -168 66 -349 226 -428
55 -27 69 -29 170 -29 104 0 114 2 176 32 300 148 301 572 2 720 -66 33 -85
37 -161 40 -53 2 -103 -2 -127 -10z m221 -165 c88 -45 138 -125 138 -222 0
-53 -5 -75 -29 -119 -32 -58 -84 -102 -142 -122 -45 -14 -149 -7 -188 14 -44
23 -96 77 -116 122 -22 48 -25 151 -5 199 27 65 92 123 166 147 40 13 133 3
176 -19z"/>
<path d="M3175 2795 l-25 -24 0 -349 c0 -338 1 -350 21 -376 l20 -26 162 0
c135 0 169 3 202 19 46 21 111 88 131 137 32 77 8 202 -52 265 -24 25 -24 26
-8 64 11 27 15 60 12 107 -5 88 -40 141 -117 181 -51 25 -62 27 -188 27 -129
0 -135 -1 -158 -25z m289 -146 c19 -15 26 -30 26 -54 0 -53 -36 -75 -121 -75
l-69 0 0 75 0 75 69 0 c54 0 74 -4 95 -21z m31 -291 c59 -27 73 -112 26 -159
-28 -28 -33 -29 -125 -29 l-96 0 0 100 0 100 85 0 c46 0 96 -5 110 -12z"/>
</g>
</svg>
